<?xml version="1.0" encoding="utf-8"?>
<!-- Generator: Adobe Illustrator 23.1.0, SVG Export Plug-In . SVG Version: 6.00 Build 0)  -->
<svg version="1.1" id="Слой_1" xmlns="http://www.w3.org/2000/svg" xmlns:xlink="http://www.w3.org/1999/xlink" x="0px" y="0px"
	 viewBox="0 0 2700 1000" style="enable-background:new 0 0 2700 1000;" xml:space="preserve">
<path d="M111.8,533c5.9-4.3,13.2-3,19.7-4.8c3.7-1,7.5-1.8,11.1-3.4c7.9-3.7,12.1-10,12.5-18.8c0.1-2.5,1.8-4.9,1-7.6
	c0.7-1.8,0.4-3.6,0.4-5.4c0-83,0-166,0-249c0-1.8,0.3-3.7-0.4-5.4c-0.1-13.2-7.1-21.1-20.9-23.8c-5.1-1-10.1-2.2-14.8-4.6
	c-2.1-1.1-3-2.7-4.7-3.9c1.5-1.5,2.7-1,3.8-1c35.7,0,71.3,0,107,0c1.3,0,2.7-0.1,4,0.2c0.6,0.2,1.2,1.2,1.4,1.9
	c0.2,1-0.6,1.4-1.5,1.6c-6.8,1.6-13.6,3.7-20.4,4.9c-11.3,2-18.9,10.3-18.9,21.7c0,41,0,82,0,123.3c2.8-0.9,5.1-2.3,7.1-4.3
	c17-17,33.7-34.1,50.9-50.9c20.7-20.2,39.9-41.8,60.8-61.9c3.8-3.7,7-8.3,9.8-13.1c4.2-7.2,0-10.7-4.8-13.2
	c-2.1-1.1-4.4-1.8-6.7-2.3c-5.2-1.1-9.6-3.5-12.9-7.7c1-1.3,2.5-0.8,3.7-0.8c33.9,0,67.9,0,101.8,0c1.1,0,2.3-0.3,3.4,0.6
	c1.5,2,0.6,2.8-1.4,3.9c-5.3,2.7-11,4-16.8,4.8c-21.3,2.9-39.6,12.3-55.9,25.9c-23.3,19.4-43.6,42-65.2,63.2
	c-8.4,8.3-16.8,16.7-25.1,25.1c-5.4,5.4-5.8,10.1-1,16c14.4,17.9,29,35.6,43.4,53.5c17.8,22,35.2,44.2,53.2,65.9
	c11.9,14.4,23.1,29.5,36.5,42.6c11.8,11.6,25.3,20.5,42,23.5c3,0.5,5.9,0.6,8.9,0.5c2,1.2,4.6-0.7,6.3,1.4c-0.7,4.1-3.2,5-7,4.3
	c-1.7-0.3-3.6,0.1-5.3,0.1c-9.4-0.8-18.7-0.7-28.1,0c-1.5,0.1-3,0.2-4.5,0.2c-1.8,0.7-3.7-0.1-5.5,0.7c-9.4,0.1-18.6-0.6-27.2-5.1
	c-10-5.2-17.8-12.9-24.5-21.7c-8.3-10.7-16.3-21.6-24.6-32.3c-10.4-13.6-20.9-27.3-31.5-40.7c-9.7-12.2-19.9-24-29.4-36.3
	c-9.6-12.6-20.5-24.2-28.9-37.8c-1.7-2.7-3-3.3-6-1.2c-8,5.5-14.7,11.6-15.6,22.1c-0.7,10.6-0.7,21.1,0,31.7
	c-0.5,11.8-0.5,23.5,0,35.3c-0.9,9.1-0.3,18.3-0.4,27.4c0,7.1-0.6,14.3,0.4,21.4c-0.3,5.1,0.2,10.1,1.8,15
	c3.6,10.6,12.5,12.7,21.9,14.7c5.5,1.2,11.7-0.4,16.4,3.9c-0.1,2.3-1.9,1.4-3,1.4c-37.7,0.1-75.4,0-113.1,0
	C113.8,534.5,112.2,535,111.8,533z"/>
<path d="M1241.1,274.5c0.7-11.5,0-23-0.2-34.5c-0.9-2.7,0.3-5.6-0.7-8.2c-2.3-14.5-6.4-14.5-19.4-17.9c-6.5-1.7-13.3-2.7-19.7-4.8
	c-1.1-2.6-0.7-4.3,2.3-4.9c2.2-0.1,4.4-0.2,6.7-0.3c8.5-0.7,17.1-0.1,25.7-0.3c2,0,4,0.3,5.9-0.4c8.9,0.1,17.9,0.2,26.8,0.1
	c14.4,0,28.8-0.1,43.3-0.1c7.1,1.1,14.3-0.3,21.4,0.7c3.2,0.1,6.4,0.2,9.6,0.3c1.7,0.8,3.7,0,5.4,0.7c16.9,2.6,33.5,6,49.2,13.2
	c23.2,10.7,37,28.7,41.8,53.7c0.4,2.1,0.8,4.2,1.2,6.3c0.7,1.8-0.1,3.8,0.7,5.5c0,5,0,10,0,15c-0.9,2.1,0,4.4-0.7,6.5
	c-2.5,18.6-8.3,35.9-20.2,50.9c-10.5,13.1-23.8,22.8-38.9,29.9c-17.1,8-35.2,12.2-54.1,13.5c-3.3,0.5-6.7,0.5-10,0
	c-5.7-0.6-11.4,0-16.9-3.1c-2.6-1.4-2-2.9-1.9-4.7c0.1-2.7,2.3-1.3,3.4-1.3c10.9-0.2,21.9,1.1,32.8-1c14.5-2.8,27.7-8.5,39.1-18
	c15.2-12.6,23.6-28.7,26.7-48.2c1.5-9.3,2.3-18.5,1.6-27.9c-0.7-1.8,0.1-3.7-0.7-5.5c-1.8-17.4-6.1-33.9-17.2-48.1
	c-12.8-16.4-29.7-25.9-50.1-29.5c-1.2-0.2-2.2-1.5-3.6-1c-1.6-0.9-3.6,0-5.2-0.7c-4-0.4-8-0.4-12,0c-1.7,0.8-3.6-0.2-5.2,0.7
	c-11,1.2-22.2,2.4-27.6,14.3c-2.3,5.1-3.5,10.6-3.3,16.2c-0.8,1.8,0,3.7-0.7,5.5c-0.7,16.2-0.8,32.4-0.3,48.6
	c-0.7,1.6-0.4,3.3-0.4,4.9c0,57.7,0,115.3,0,173c0,1.6-0.3,3.3,0.4,4.9c-0.6,5.2-0.1,10.4,0.3,15.5c0.7,1.7-0.2,3.6,0.7,5.2
	c1,19.1,10.3,25.7,24.3,28.7c3.7,0.8,7.4,1.6,11.2,1.1c2.1,0.9,4.4,0,6.5,0.7c3.5,0.1,7,0.2,10.4,0.3c2.1,1,4.5-0.3,6.5,1
	c0.9,4.3-2.1,3.5-4.5,3.5c-37.7,0-75.4,0-113.1,0c-6,0-11.9,0.2-17.9,0.2c-1.7-1.8-1-3,1.1-3.7c9.5-1.3,19.1-1.3,28.1-5.7
	c7-3.4,9.9-9.4,10.4-15.7c2.3-26,1.3-52.2,1-78.3c0.9-5.1,0.3-10.2,0.4-15.3c0.1-13.1,0-26.1,0-39.2c0-1.8,0.3-3.6-0.4-5.4
	c0.1-8.8,0.3-17.5,0.3-26.3c0-19.9-0.2-39.8-0.3-59.7C1241.8,281.8,1241.8,278.1,1241.1,274.5z"/>
<path d="M1875.1,205.2c1.6,0,3.2,0,4.8,0c32.7,0,65.3,0,98,0c0.7,0,1.3,0,2,0c1.2,0.1,2.7-0.5,3.2,1.5c0.5,2.1-1.4,1.9-2.3,2.3
	c-4.4,1.8-8.9,3.3-13.3,5c-2,0.7-4.1,1.2-6,2.2c-7,3.7-9.3,9.7-6.8,17.4c5.1,15.5,11.9,30.4,18.6,45.3
	c20.4,45.4,41.2,90.6,61.9,135.9c10.2,22.3,20.6,44.5,30.8,66.8c1.6,3.4,2.3,4.5,5.5,0.8c5.7-6.6,7-15,10.3-22.5
	c5.4-12.2,9.9-24.7,14.9-37c6.4-15.9,12.8-31.8,19.2-47.8c6.1-15.2,12.2-30.4,18.2-45.6c7.4-18.7,14.5-37.4,22-56.1
	c4.3-10.7,8.9-21.2,12.4-32.2c2.6-8.2,1.7-16.9-3.2-20.3c-4.6-3.2-9.7-5.7-15.4-7c-6.1-1.4-12.6-2.1-16.6-8.1
	c0.9-1.3,2.4-0.6,3.5-0.6c28.8-0.1,57.7-0.1,86.5,0c1.5,0,3.8-1.3,4.5,1.5c0.6,2.5-1.6,2.8-3.1,3.7c-3.3,1.9-6.8,2.9-10.5,3.7
	c-13.2,3-23.1,10.8-28.3,23.2c-16.4,38.8-32.2,77.9-48.4,116.9c-23.1,55.6-44.8,111.9-67.3,167.7c-2.4,5.9-6.6,10.1-10.4,14.7
	c-8.2-5.9-12.8-14-16.7-22.8c-6.4-14.6-13.6-28.8-20.3-43.3c-5.9-12.7-11.7-25.4-17.6-38.1c-9-19.4-18-38.8-27.1-58.2
	c-7.1-15.3-14.4-30.5-21.5-45.8c-9.6-20.7-18.9-41.6-28.6-62.2c-5.6-11.9-10.4-24.2-17.6-35.4c-6.3-9.7-14.6-16.2-26.2-17.9
	c-4.5-0.6-5.4-5.5-9.4-6.4C1875,206,1875,205.6,1875.1,205.2z"/>
<path d="M1158.9,657.3c-0.4,6.8-0.5,6.6-7.8,7.7c-8.1,1.3-14.8,4.6-20.5,11.2c-12.9,15-25.7,29.9-40.2,43.5
	c-2.4,2.3-2.7,3.5-0.3,6.2c15.3,17.3,29.7,35.3,43.9,53.5c6.7,8.7,14.3,16.5,25.6,19.1c2.2,0.5,4.6,0.4,6.9,0.6
	c1.6,2.6,0.9,5.2,0.4,7.9l0,0c-6.9,1.1-13.8,0.4-20.7,0.4c-7.1,0-14.2,0.5-21.3-0.3c-7-9.8-13.7-19.8-21-29.4
	c-6.2-8.1-12.8-15.8-19.5-23.6c-5.6-6.6-11.5-12.9-17.3-19.3c-0.7-0.8-1.1-1.7-2.3-0.9c-0.9,1.5-0.5,3.2-0.5,4.9
	c0,15.3,0,30.5,0,45.8c0,1.6-0.3,3.3,0.4,4.9c-0.1,4.4,3,6.3,6.4,7.5c3.9,1.4,8,2.4,12.3,2.2c1.7,2.5,1,5.2,0.4,7.9l0,0
	c-0.9,0.7-1.9,0.5-2.9,0.5c-18.7,0-37.5,0-56.2,0c-1,0-2,0.2-2.9-0.5l0,0c-0.7-2.7-1.3-5.3,0.3-7.9c1.5-0.1,3.1-0.2,4.6-0.3
	c1.6-0.8,3.6,0.2,5.2-0.8c6.2-1.3,8.6-4.2,8.9-10.6c0.6-1.3,0.4-2.6,0.4-3.9c0-34,0-68,0-102c0-1.3,0.2-2.7-0.4-3.9
	c0.6-4.3-1.9-6.7-5.2-8.6c-3.6-2-7.4-3.3-11.5-4.1c-4.2-0.5-2.8-3.8-2.8-6.2c-0.1-3,2.4-2.2,4-2.2c18.1,0,36.2-0.1,54.3,0
	c1.9,0,4.6-1.1,4.6,2.7c0,3,0.2,5.7-3.9,5.7c-3.7,0.1-7.4,0.8-10.9,2.1c-3.1,1.1-4.9,3.2-4.8,6.6c-0.9,12-0.3,24-0.3,35.9
	c0,6.5-0.7,12.9,0.5,19.4c10.3-6.8,18.5-16,27.2-24.5c8.1-8,15.8-16.4,22-26.1c1-1.5,2-3,2.6-4.6c1.4-3.7-0.2-6.9-4-7.9
	c-2.2-0.6-4.6-1.6-6.6-1.1c-4.1,0.9-4.5-1-4.1-4.1c0.1-1.1,0-2.3-0.1-3.5c0.8-0.8,1.8-0.6,2.8-0.6c17,0,33.9,0,50.9,0
	C1156.8,656.5,1158.1,656,1158.9,657.3z"/>
<path d="M1674.1,807.7c-9.3-12.4-18.6-24.8-27.8-37.3c-8.1-11-16-22.2-24.2-33.1c-12.4-16.7-24.9-33.3-37.9-50.6
	c0,26.8,0,53.1,0,79.3c0.9,3.4-0.4,6.9,0.7,10.2c0.2,13.7,4.3,18.7,17.8,21.8c8.1,1.8,8.1,1.8,8.2,8.8c-0.7,0.9-1.8,0.7-2.8,0.7
	c-18.8,0-37.5,0-56.3,0c-1,0-2,0.2-2.8-0.6c-1.1-5.5,0.8-8.2,6.8-9c7.4-1,14.4-4,15.9-12.5c0.7-3.9,2.2-7.9,1.4-12
	c0.6-1.1,0.4-2.3,0.4-3.4c0-26.6,0-53.2,0-79.8c0-1.1,0.2-2.3-0.4-3.4c-1.2-12.4-9.7-17.7-20.3-20.8c-1.1-0.3-2.2-1.4-3.6-1
	c-4.1-0.7-2.7-4-2.7-6.3c0-3,2.5-2,4.1-2c12.1-0.1,24.3,0,36.4,0c1,0,2-0.2,2.9,0.5c16.1,21.9,32.1,43.8,48.2,65.7
	c10.7,14.5,21.5,29,32.2,43.5c1,1.3,1.9,2.5,3.6,4.8c0-2.7,0-4.3,0-5.9c0-22.1,0-44.3,0-66.4c0-5-0.3-10-0.9-14.9
	c-1.4-11.1-4.8-15.1-15.6-17.7c-2.3-0.6-4.8-0.9-7.1-1.3c-4.2-0.7-2.7-3.9-2.7-6.3c0-3,2.5-2,4.1-2c18-0.1,36,0,54,0
	c1.1,0,2.4-0.4,3.2,0.7c0.6,5.4-1.1,7.2-7.1,8.1c-13.9,1.9-17.2,7.5-16.9,24.2c-0.8,1.8-0.4,3.6-0.4,5.4c0,35.6,0,71.2,0,106.8
	c0,7.4,1.1,6.5-6.6,6.6C1676.5,808.4,1675.1,809,1674.1,807.7z"/>
<path d="M1741.1,677.6c1.1-6.3-5.3-9.8-13.1-11.6c-2-0.5-4.1-2-6.5-1.1c-1.3,0.5-1.5-0.9-1.5-1.9c0-2,0-4,0-6
	c1.4-0.9,2.9-0.5,4.4-0.5c35.6,0,71.3,0.1,106.9-0.1c4.1,0,5.5,1,5.3,5.2c-0.5,10.4,0.5,20.9-0.5,31.4c-8.4,2.2-9.4-4.8-12.2-9.7
	c-3.4-5.9-7.1-11.5-13.1-15.2c-2.4-1.5-5-3-8.1-2.2c-11.8-1-23.5-0.1-35.3-0.5c-2.8-0.1-2.8,1.5-2.8,3.5c0,9,0,17.9,0,26.9
	c0,8.1,0.1,16.3-0.1,24.4c-0.1,3.1,0.6,4.6,4.1,4.3c6.3-0.5,12.6,0.5,18.8-0.5c9.1-0.6,14.1-7.1,16.9-17.9c0.5-2.2-0.8-5.7,3.5-6.1
	c4.5-0.5,6.3,0.5,6.2,5.7c-0.3,17.6-0.1,35.3,0,52.9c-2.5,1.5-5.2,0.7-7.9,0.5c-1.9-5.2-2-10.9-5.1-15.8c-3.7-6-8.4-9.5-15.6-9.5
	c-6.1-0.9-12.2-0.2-18.3-0.4c-2-0.1-2.6,0.9-2.5,2.7c0.3,16.7-0.5,33.4,0.4,50.1c0.3,7,3.2,11,10.8,11.4c13.1,0.6,26.2,1.5,39.3-0.9
	c6.4-1.2,10.1-5.7,13.2-10.7c4.6-7.4,8.4-15.3,11.9-23.3c2.7-0.3,5.3-0.9,7.9,0.4c0,1.4,0,2.8,0,4.2c-1,2.4,0,5.1-0.8,7.6
	c-0.1,2.5-0.2,5-0.3,7.5c-1,2.4,0.1,5-0.7,7.5c-0.1,2.8-0.2,5.6-0.3,8.4c-1,2.4,0,5.1-0.8,7.6c-0.2,0.3-0.2,0.6-0.2,0.9
	c-1.2,1-2.5,0.6-3.8,0.6c-39.1,0-78.2,0-117.2,0c-1.3,0-2.7,0.4-3.8-0.6c0-0.8,0.1-1.7,0-2.5c-0.6-3.9,0.7-5.4,4.9-5.5
	c4.8-0.1,9.8-0.4,13.5-4.5c1.8-2.1,3.2-4.1,2.7-6.9c0.6-1.3,0.4-2.6,0.4-3.9c0-34,0-68,0-101.9
	C1741.5,680.2,1741.7,678.8,1741.1,677.6z"/>
<path d="M874.1,677.4c-0.3-5.6-4.6-10.3-11.5-11.6c-1.6-0.3-3.3-1.4-5.1-0.9c-4.2-0.5-2.9-3.7-2.9-6.1c0-3.4,2.7-2.2,4.4-2.2
	c17.9-0.1,35.9-0.1,53.8,0c1.8,0,4.7-1.2,4.7,2.5c0,2.8,0.4,5.8-3.8,5.8c-3.2,0.4-6.5,0.5-9.5,1.4c-3.9,1.2-6.9,3.6-6.3,8.4
	c-0.6,1.1-0.4,2.3-0.4,3.4c0,27.5,0,55,0,82.5c0,1.3-0.1,2.7,0.4,3.9c-1,18.9,13.7,34.1,30.6,33.5c3.9,0.7,7.9,0.7,11.8,0
	c18.6-0.8,32.7-15.4,33.7-34.7c0.8-2.3,0.4-4.6,0.4-6.9c0-18.8,0-37.6,0-56.5c0-1.8,0.3-3.7-0.4-5.4c0.5-7-1.1-13.7-3.3-20.2
	c-1.7-4.8-6.4-6.3-10.7-7.6c-4-1.2-8.1-1.9-12.2-2.8c-0.4-2.3-0.7-4.7,0.2-7l0,0c2.1-0.9,4.3-0.4,6.4-0.4c16.8,0,33.6-0.1,50.3,0
	c1.8,0,4.7-1.3,4.7,2.5c0,2.8,0.6,5.8-3.7,5.9c-14.8,0.4-19.9,6-19.9,21.5c-0.7,1.8-0.4,3.6-0.4,5.4c0,22.6,0,45.1,0,67.7
	c0,1.8,0.3,3.6-0.3,5.4c-2,23-15,37.5-39.5,43.9c-2.2,0.6-4.4,0.9-6.6,1.3c-1.8,0.7-3.7-0.1-5.4,0.7c-2.3,0-4.7,0-7,0
	c-2.1-0.9-4.4,0-6.5-0.7c-12.7-1.3-24.1-5.5-33.6-14.3c-6.7-6.2-10.4-13.9-11.6-22.9c-0.6-4.1-0.3-8.3-0.3-12.4
	c0-25.7,0-51.5,0-77.2C874.5,681.3,874.9,679.3,874.1,677.4z"/>
<path d="M1479.2,798c4.7-0.3,8.1-2.4,9.8-6.9c0.7-1.2,0.4-2.6,0.4-3.9c0-36.5,0-73,0-109.5c0-1.3,0.3-2.7-0.5-3.9
	c-2.4-6.3-8.7-6.1-13.7-8.2c-0.3-0.1-0.7,0-1,0c-5.7,0-8.4-2.5-7.3-8.4c1.3-1.6,3.1-0.8,4.6-0.8c19.2-0.1,38.4,0,57.6,0
	c6.9,0,7,0.1,5.5,7.5c-4.5,0.7-9,1.3-13.4,2c-5.6,0.9-8.5,3.9-8.7,9.6c-0.3,7.6-0.2,15.3-0.2,23c0,27.5,0.3,54.9-0.1,82.4
	c-0.2,15.8,5,15.4,16.6,18c1.7,0.4,3.6,0.1,5.5,0.2c1.7,2.5,1,5.2,0.3,7.8l0,0c-1,0.8-2.2,0.5-3.4,0.5c-20.3,0-40.6,0-60.9,0
	c-1.2,0-2.7,0.7-3.6-0.8c0-0.2,0.1-0.3,0.1-0.5c-0.9-5.4,1.2-8,6.8-7.3C1475.7,798,1477.6,799,1479.2,798z"/>
<path d="M1846.1,357c-0.1-3.2-0.2-6.3-0.3-9.5c-0.8-1.8,0-3.8-0.8-5.5c-1.7-10-3.3-20.1-6.2-29.8c-10-33.5-28.3-61.4-55.9-83
	c-25.6-20-55-30.5-87.1-34.4c-2-0.8-4.3,0.2-6.3-0.7c-8.8,0-17.5,0-26.3,0c-2.1,0.9-4.3,0-6.4,0.7c-5.4,0.7-10.8,1.4-16.2,2.2
	c-20.1,3.1-39.3,9.2-57.3,18.4c-13.4,6.8-25.8,15.4-37.2,25.6c-9.5,8.5-17.8,17.8-25.1,28c-16.4,23.1-26.6,48.6-29.4,76.9
	c-0.7,1.7,0.1,3.7-0.7,5.4c-0.1,2.9-0.2,5.7-0.3,8.6c-0.5,4.7-0.5,9.3,0,14c0.1,2.8,0.2,5.6,0.3,8.5c0.8,1.8,0,3.8,0.7,5.5
	c0.7,7.2,1.9,14.3,3.5,21.4c3.5,15.6,8.7,30.6,16.4,44.4c9.7,17.3,21.4,33,36.7,46.2c16.1,13.8,33.9,23.9,53.7,30.8
	c12.9,4.5,26.2,7.5,39.9,8.3c2.5,0.8,5.1-0.2,7.5,0.8c6.6,0,13.3,0,19.9,0c2.1-0.9,4.4,0,6.5-0.7c17.3-1.7,34.3-5.1,50.6-11.3
	c35.6-13.5,65.2-35,87.6-66c17-23.6,27-50.1,31-78.9c0.7-1.7-0.1-3.7,0.7-5.4c0.1-2.9,0.2-5.7,0.3-8.6
	C1846.6,365,1846.6,361,1846.1,357z M1792.8,451.2c-16.8,41.3-47.3,66.4-91,74.9c-40.7,7.9-77.5-1.4-109.2-28.2
	c-27.5-23.2-44.4-53.2-53.5-87.8c-5.8-21.8-8.2-44-9.9-66.3c-0.9-12.7,3.5-24.5,6-36.6c3.2-15.6,7.7-30.8,15.2-44.9
	c15.8-30,40.8-48,73.8-54.5c40.3-8,78.7-2.6,113.3,20.7c31.3,21,50,51.1,60.5,86.8c6.1,20.9,7.6,42.4,8.1,61.4
	C1805.9,404,1802.2,428.2,1792.8,451.2z"/>
<path d="M1117.8,501.5c-14.3-13.1-25.7-28.6-37.3-43.8c-24.2-31.6-47.8-63.6-71.6-95.4c-3.9-5.2-4.1-8.8,0.3-13.7
	c4.2-4.7,8.9-9,13.8-12.9c18.7-15.3,29.7-34.8,33.3-58.7c0.1-1.4,0.2-2.7,0.3-4.1c-0.1-1.8-0.2-3.6,0.4-5.4c0,0,0,0,0,0c0,0,0,0,0,0
	c0,0,0,0,0,0l0,0c-0.1-0.3-0.2-0.7-0.3-1c-0.5-2.1-0.5-4.3-0.4-6.5c0,0,0,0,0,0c-0.4-1.8-0.8-3.5-1.2-5.3
	c-3.5-17.4-12.7-30.4-28.5-38.9c-11.2-6-23.3-7.4-35.5-9c-1.8-0.6-3.8,0.1-5.5-0.7c-2.2-0.1-4.3-0.2-6.5-0.3
	c-2.7-0.9-5.7,0.3-8.4-0.7c-3.5-0.1-7.1-0.2-10.6-0.3c-7.4-1-14.9,0.4-22.4-0.7c-12.4,0-24.8,0-37.2,0c-1.8,0.7-3.6,0.4-5.4,0.4
	c-15.1,0-30.1,0-45.2,0.1c-1.6,0-3.3-0.7-4.7,0.7c-0.7,1.4-3.6,2.6,0.6,3.7c5.2,1.4,10.2,3,15.6,3.9c15.4,2.6,21.5,5.8,23.9,19.8
	c1,2.4-0.1,4.9,0.7,7.3c0.1,5.2,0.2,10.4,0.3,15.6c0.7,1.6,0.4,3.3,0.4,4.9c0,76.4,0,152.7,0,229.1c0,1.6,0.3,3.3-0.4,4.9
	c0.8,5.4-0.9,10.5-1.8,15.7c-1,5.5-3.8,9.7-8.4,12.9c-7.1,4.9-15,6.7-23.4,7c-1.7,0.8-3.7,0-5.4,0.7c-1.6,0.5-3.9,0-3.6,2.8
	c39.1,0,78,0,117.2,0c-1.4-2.7-3.8-3.1-6-3.4c-3.4-0.5-6.9-0.6-10.3-1.2c-9.4-1.6-18.1-4-21.6-14.5c-1.3-4-2-7.9-1.8-12
	c-1-3.4,0.2-7-0.7-10.4c-1-38.8-0.3-77.6-0.1-116.4c0-6.5,2.9-8.7,10.4-8.6c5-0.7,10-0.7,14.9,0c5.9-0.1,11.6-0.5,17.3-2.6
	c4.5-1.6,8.9-0.4,12.5,3.3c8.2,8.4,13.9,18.6,20.8,28c12,16.3,23.3,33.3,35,49.9c12,16.8,24.1,33.5,36.4,50.1
	c7.1,9.6,14.5,19.1,24.2,26.5c12,9.1,25.6,13.9,40.1,15.7c9.1,1.1,18.5,1,27.7-0.8c6.3-1.3,12.7-2.3,19.3-5.2
	C1156.2,527.8,1134.2,516.6,1117.8,501.5z M972.7,353.9c-13.8,2.4-27.8,2.6-41.8,1.1c-7.2-0.8-10.2-3.7-11-11
	c-0.9-8.6-0.5-17.3-0.6-26c-0.1-8.7,0-17.3,0-26c0.8-18.3-0.1-36.6,1.7-54.9c1.5-15.5,6.5-26.3,26.3-27.4
	c10.2-0.5,20.3-0.1,30.1,2.6c17.7,4.9,29.6,16.5,36.3,33.3c8.8,22.1,9.7,44.9,4.5,67.9C1012.2,340,994.2,350.3,972.7,353.9z"/>
<path d="M800.3,531.7c-17-8.3-28-22.3-36.1-38.7c-13.4-27.1-26.2-54.5-39.2-81.8c-22-46.1-43.9-92.2-66-138.3
	c-11.7-24.5-22.9-49.2-36-72.9c-0.6-1-0.5-2.9-2.2-2.8c-1.6,0.1-1.8,1.8-2.4,2.8c-3.2,6-6.7,11.8-9.1,18
	c-6.3,16.5-13.7,32.6-20.4,48.9c-6.6,16.1-13.9,32-20.7,48c-6.8,16.1-13.3,32.4-20.1,48.5c-5.5,12.9-11.4,25.7-16.9,38.6
	c-6.5,15.3-12.8,30.7-19.4,45.9c-6.9,15.7-13.1,31.8-21,47.1c-5.6,10.8-12.9,20.2-22.8,27.5c-6.6,4.9-14.1,8.2-22.7,11.1
	c37.3,0,73.7,0,110.9,0c-2.9-2.4-5.5-3.5-8.5-3.8c-7.2-0.7-14.3-2.2-20.9-5.1c-9.6-4.2-16.8-10.6-18.2-22
	c-0.8-6.4,0.1-12.5,2.1-18.3c13.2-37.9,29.8-74.3,46-110.9c3.8-8.5,10.4-12.2,19.7-11.7c1.9-0.8,3.9-0.4,5.9-0.4
	c7.9-0.2,15.8,0.4,23.6-0.3c4.3,0,8.7,0,13,0c2.5,0.6,5,0.2,7.5,0.3c9,0.3,18-0.5,26.9,0.4c7.7,0.9,12.8,4.8,14.7,12.6
	c0.2,0.8,0.6,1.5,0.9,2.2c7.4,15.4,15,30.6,22.2,46.1c6.6,14,12.7,28.1,19.3,42.1c6.9,14.5,14.1,28.8,19.6,43.8
	c0.7,2.6,0.6,5.2,0,7.7c-2.9,7.8-9.7,10.4-16.8,12.4c-4.3,1.2-8.8,1.5-13.1,2.3c-1.5,0.3-3.9-0.3-3.9,2c0,2.6,2.4,1.4,3.9,1.7
	c0.5,0.1,1,0,1.5,0c33.3,0,66.7,0,100,0c1.3,0,2.7,0,4,0C803.8,533.3,802,532.6,800.3,531.7z M567.7,349.8
	c0.5-3.7,37.9-93.9,41.7-100.4c16,33.5,31.8,66.6,47.9,100.4C627,349.8,597.4,349.8,567.7,349.8z"/>
<path d="M2513.9,524.6c-5.2,3.2-10.9,4-16.6,5.5c-4.3,1.1-9.2-0.2-13.5,3.7c37.9,0,75.1,0,113.9,0c-23.3-8.4-35.2-26-44.8-45.7
	c-6.7-13.7-13.2-27.4-19.7-41.2c-14.5-30.3-28.9-60.6-43.4-90.9c-19.2-40.2-38.5-80.3-57.7-120.5c-5.5-11.5-10.5-23.3-17.2-34.3
	c-2.5-4.2-3.2-4.2-6.2-0.4c-3,3.7-4.9,7.9-6.5,12.2c-6.4,16.5-13.6,32.6-20.5,48.8c-5.6,13.2-11.1,26.3-16.6,39.5
	c-5.1,12.1-10.1,24.3-15.2,36.4c-4.9,11.6-9.8,23.2-14.7,34.7c-5.3,12.4-10.4,24.9-15.8,37.3c-5.7,13.2-11.6,26.3-17.2,39.5
	c-6,14.1-11.5,28.4-18,42.3c-5.3,11.4-12.5,21.6-22.7,29.4c-7.6,5.9-16.3,9.6-26.1,12.4c37.6,0,74.5,0,112,0
	c-2.8-2.7-5.5-3.2-8.5-3.6c-10.1-1.3-20-3.4-28.5-9.7c-5.4-4-9-9-9.4-15.9c-0.7-4-0.7-7.9,0-11.9c-0.3-5.6,1.6-10.7,3.6-15.6
	c8.5-21.1,17.4-42.1,26.1-63.2c5.5-13.4,10.9-26.9,16.6-40.1c2.4-5.5,5.6-10.9,12.7-11.6c1.6-1.1,3.5,0,5-0.8c1.7,0,3.4,0,5,0
	c8.4,0.7,16.9,0.3,25.3,0.3c13.6,0,27.1,0.4,40.7-0.3c12.6-1,19.6,3.7,24.3,14.2c3.2,7,6.3,14.1,9.6,21.1
	c7.8,16.3,15.6,32.5,23.4,48.8c5.4,11.2,10.8,22.3,15.9,33.6c4,8.9,8.6,17.5,11.2,27C2522.8,514.7,2522.2,519.4,2513.9,524.6z
	 M2447,348.8c-1.1,0.1-2.2,0.1-3.3,0.1c-27,0-54,0-80.9,0.1c-3.7,0-4.6-0.5-3-4.3c12.5-29.3,24.8-58.7,37.1-88.1
	c0.5-1.2,0.5-3.4,2.6-3c1.6,0.3,3.4,0.2,4.5,2.4c14.3,30.5,28.7,61,43,91.5C2447.1,347.9,2447,348.2,2447,348.8z"/>
<path d="M1312.4,799c-0.8-0.1-1.6-0.5-2.4-0.7c-0.2,0-0.3-0.1-0.3-0.3c-7.7-0.9-13.3-5.4-17.7-11.1c-12.6-16.3-24.7-33-37.1-49.5
	c-3.4-4.5-3.5-4.5,2.1-6.4c16.8-5.5,29.1-15.2,31.3-34c0.4-3,0.5-6,0-9c-1.4-6.1-3.1-11.9-7.4-16.8c-8.8-10-20.6-12.6-32.8-14.4
	c-0.6-0.2-1.3-0.3-2-0.3c-23.9,0-47.8,0-71.8,0c-1.1,0-2.4-0.5-3.1,0.8c0.5,7.7,0.5,7.9,8.1,8.3c1.9,0.1,3.5,0.8,5,1.3
	c4.7,1.6,8,4.7,6.9,10.4c0.6,1.4,0.4,2.9,0.4,4.4c0,33.9,0,67.7,0,101.6c0,1.3,0.2,2.7-0.4,3.9c0.5,2.1-0.2,3.9-1.3,5.6
	c-3.4,5.4-9,5.7-14.4,6c-3,0.1-4.7,0.8-4.1,4.2c0.2,1.1-0.1,2.3-0.1,3.5c0.9,1.5,2.4,0.8,3.6,0.8c19,0,37.9,0,56.9,0
	c1.1,0,2.3,0.3,3.3-0.6c0.1-7.2,0.1-7.1-7.3-7.9c-2.3-0.2-4.6-0.5-6.7-1.3c-3.1-1.3-6.6-2.5-6.1-7.1c-0.9-14.3-0.2-28.7-0.4-43.1
	c0-2.8-0.6-5.6,0.5-8.3c3.5-0.1,7,0.1,10.4-0.3c2.9-0.3,4.9,1.2,6.3,3.1c15.7,21.3,31.2,42.7,45.3,65.1c0.9,0.5,1.9,0.4,2.9,0.4
	c11,0,21.9,0,32.9,0C1312.8,804.6,1312.7,801.8,1312.4,799z M1226.8,729.8c-12.7,0.2-12.7,0.2-12.7-12.4c0-6.7,0-13.3,0-20
	c0-9.5,0.1-19-0.1-28.4c-0.1-2.9,0.5-4.2,3.8-4c6.8,0.4,13.6-0.4,20.4,0.7c13.7,2.1,22.3,11.1,23.7,24.8
	C1264.2,713.6,1250,729.4,1226.8,729.8z"/>
<path d="M1459.4,798.8c-7.8-1.8-13.6-6-16.6-13.8c-13.5-34.9-27.3-69.8-40.7-104.7c-3.2-8.3-7-16.4-9.2-25.1
	c-3.3-1.1-6.6-1.4-9.8,0.2c-2.4,6.4-4.7,12.9-7.3,19.3c-5.9,14.8-12.2,29.4-17.7,44.3c-7.8,21.6-16.5,42.8-25.1,64
	c-3.1,7.6-8.8,13.2-17.3,15c0,0.1-0.1,0.2-0.2,0.3c-0.2,0.2-0.4,0.2-0.7,0.3c-0.3,0.1-0.5,0.2-0.8,0.3c-0.2,0.1-0.5,0.1-0.7,0.1
	c0.3,2.8,0.5,5.6,0.5,8.4c16.3,0,32.5,0,48.8,0c1.1,0,2.3,0.2,3.4-0.5c0.6-2.7,1.3-5.3-0.4-7.9c-5.4,0.3-10.4-1-15.4-2.8
	c-4.3-1.5-6.1-4.1-5.4-8.6c1.4-10.3,5.5-19.7,8.9-29.4c0.9-2.6,2.2-3.4,5-3.4c12.8,0.2,25.6,0.1,38.4,0.1c10.5,0,10.5,0,14,9.6
	c2.6,7,5.6,13.9,7.8,21c3.1,9.7,2.6,9.4-6.4,12.5c-3.5,1.2-7.3,0.3-10.6,1.9c-0.5,2.3-0.8,4.6,0.2,6.9c1.5,1,3.2,0.5,4.8,0.5
	c12.4,0,24.9,0.1,37.3,0c6.6-0.1,13.2,0.5,19.8-0.4C1465.6,800.4,1465.4,800.2,1459.4,798.8z M1400.2,745.5c-13.5,0-27,0-41.3,0
	c7.5-19.5,14.7-38.3,22.3-58.1c7.5,19.2,14.6,37.3,21.7,55.4C1404.1,745.9,1402,745.5,1400.2,745.5z"/>
</svg>
